<svg xmlns="http://www.w3.org/2000/svg" width="48.4" height="103.7"><path d="M48.4 0c0 .3-.1.7-.1 1v16c0 .7-.2.9-.9.9h-8.7c-1 0-2 .2-3 .4-1.8.4-3.1 1.8-3.2 3.9-.3 3.7-.1 7.5-.2 11.3 0 .7.4.6.8.6h14.5c.6-.1.7.2.7.8-.5 4.3-.9 8.6-1.4 12.9-.1 1.1-.3 2.2-.4 3.4 0 .6-.3.8-.9.8H33.2c-.8 0-1 .2-1 1v51H12.8V53.1c0-.8-.1-1-1-1-3.7.1-7.5 0-11.2 0-.6 0-.8-.2-.8-.8V35.1C0 34.2.2 34 .9 34h11.2c.8 0 1-.3 1-1 0-4.8-.2-9.6.1-14.4.2-3.5.9-6.9 2.5-10 1.8-3.5 4.6-5.7 8.2-7 2-.7 4.2-1.1 6.3-1.3.3 0 .6 0 .9-.2C36.8 0 42.6 0 48.4 0z"/></svg>