<svg xmlns="http://www.w3.org/2000/svg" width="513.4" height="338.7" viewBox="0 0 513.4 338.7"><path d="M-513.6-70.4v8.4h-2.1v-18.6h2.1v8.2h10.7v-8.2h2.1V-62h-2.1v-8.4h-10.7zm42.2 8.4h-2.3l-2.2-4.9H-486l-2.2 4.9h-2.1l8.5-18.7h2l8.4 18.7zm-9.4-16.3l-4.2 9.5h8.5l-4.3-9.5zm25 16.3h-2.1v-7.3l-7.7-11.2h2.5l6.3 9.3 6.3-9.3h2.4l-7.7 11.2v7.3zm45.6 0l-5.4-7.2h-5.3v7.2h-2.1v-18.6h8c4.1 0 6.7 2.2 6.7 5.5 0 3.1-2.1 4.9-5 5.4l5.7 7.6h-2.6zm-5-16.6h-5.7v7.5h5.7c2.8 0 4.8-1.4 4.8-3.8s-1.8-3.7-4.8-3.7zm33.4 8.7c0 5.4-3.1 8.2-7.7 8.2s-7.7-2.8-7.7-8.1v-10.8h2.1v10.7c0 4 2.1 6.3 5.7 6.3 3.4 0 5.6-2.1 5.6-6.1v-10.8h2.1v10.6zm25.5-10.7h2V-62h-1.7l-12-15.2V-62h-2v-18.6h2l11.7 14.9v-14.9zm27.9 0h2V-62h-1.7l-12-15.2V-62h-2v-18.6h2l11.7 14.9v-14.9zm27.6 1.9h-11.3v6.3h10.1v1.9h-10.1v6.5h11.5v1.9h-13.5v-18.6h13.4v2zm24 16.7l-5.4-7.2h-5.3v7.2h-2.1v-18.6h8c4.1 0 6.7 2.2 6.7 5.5 0 3.1-2.1 4.9-5 5.4l5.7 7.6h-2.6zm-5-16.6h-5.7v7.5h5.7c2.8 0 4.8-1.4 4.8-3.8s-1.8-3.7-4.8-3.7zm2.9 46.9c-2.4 0-3.7-1.5-4.3-2.9-.7 2.2-1.9 4-4.5 4-3.2 0-5.1-2.7-5.1-6.7v-8.2h18.5v7.9c0 3.6-1.8 5.9-4.6 5.9zm-.3-2.1c1.8 0 3-1.5 3-4.1v-5.6h-6.4v5.5c.1 2.5 1.2 4.2 3.4 4.2zm-8.4 1.1c2 0 3.2-1.7 3.2-4.9v-5.8h-6.5v6.2c0 2.7 1.3 4.5 3.3 4.5zm13.3 13.1v2.1h-16.6v10.4h-1.9v-12.5h18.5zm-18.8 30.7c0-5.6 4.4-9.4 9.5-9.4s9.6 3.8 9.6 9.5c0 5.6-4.4 9.4-9.5 9.4s-9.6-3.9-9.6-9.5zm17.2 0c0-4.2-3.4-7.2-7.6-7.2s-7.7 3.1-7.7 7.3 3.4 7.2 7.6 7.2c4.3 0 7.7-3.1 7.7-7.3zm-17.2 29.2c0-5.3 4.2-9.3 9.5-9.3s9.6 3.9 9.6 9.3c0 3.4-1.2 5.4-2.9 7.2l-1.5-1.4c1.5-1.6 2.5-3.3 2.5-5.8 0-4.1-3.3-7.2-7.6-7.2s-7.7 3.1-7.7 7.2c0 2.5 1 4.2 2.7 6l-1.3 1.4c-2-1.9-3.3-4.1-3.3-7.4zm.3 33.6v-2.6l9-7.1-4-3.9h-5v-2.1h18.5v2.1h-11l11 10.6v2.7l-8.1-7.9-10.4 8.2zM4.5 22.2v17.9H0V.3h4.5V18h23V.3H32v39.9h-4.5v-18h-23zm90.1 18h-4.8l-4.7-10.5H63.4l-4.7 10.5h-4.6L72.3 0h4.2l18.1 40.2zm-20.3-35l-9.1 20.3h18.2L74.3 5.2zm53.2 35h-4.6V24.4L106.4.3h5.5l13.4 19.9L138.9.3h5.2l-16.6 24v15.9zm96.7 0l-11.6-15.5h-11.4v15.5h-4.5V.3h17.1c8.8 0 14.4 4.7 14.4 11.9 0 6.7-4.6 10.5-10.8 11.7l12.2 16.3h-5.4zM213.6 4.4h-12.3v16.2h12.2c6 0 10.3-3.1 10.3-8.3 0-4.9-3.8-7.9-10.2-7.9zm71.2 18.7c0 11.6-6.7 17.7-16.6 17.7-9.9 0-16.6-6-16.6-17.3V.3h4.5v22.9c0 8.6 4.6 13.4 12.2 13.4 7.3 0 12-4.4 12-13.2V.3h4.5v22.8zM339 .3h4.4v39.9h-3.6L314 7.5v32.7h-4.4V.3h4.2l25.1 32V.3zm59.2 0h4.4v39.9H399L373.2 7.5v32.7h-4.4V.3h4.2l25.1 32V.3zm58.7 4.1h-24.3V18h21.8v4.1h-21.8v14h24.6v4.1h-29.1V.3h28.8v4.1zm51 35.8l-11.6-15.5H485v15.5h-4.5V.3h17.1C506.4.3 512 5 512 12.2c0 6.7-4.6 10.5-10.8 11.7l12.2 16.3h-5.5zM497.3 4.4H485v16.2h12.2c6 0 10.3-3.1 10.3-8.3 0-4.9-3.8-7.9-10.2-7.9zm5 108.9c-5.2 0-7.9-3.2-9.3-6.3-1.4 4.7-4.2 8.5-9.7 8.5-6.9 0-10.9-5.8-10.9-14.5V83.3h39.9v17c-.1 7.8-3.9 13-10 13zm-.7-4.6c4 0 6.6-3.1 6.6-8.8V87.7h-13.7v11.8c0 5.4 2.4 9.2 7.1 9.2zm-18 2.2c4.4 0 6.9-3.6 6.9-10.6V87.7h-14.1v13.4c0 6.1 2.7 9.8 7.2 9.8zm28.6 27.8v4.5h-35.7v22.4h-4.2v-26.9h39.9zm-40.5 65.7c0-12.1 9.5-20.3 20.6-20.3 11 0 20.7 8.3 20.7 20.4s-9.5 20.3-20.6 20.3c-11.1 0-20.7-8.3-20.7-20.4zm37.1 0c0-9.1-7.3-15.6-16.4-15.6-9.1 0-16.5 6.6-16.5 15.7s7.3 15.6 16.4 15.6c9.1 0 16.5-6.6 16.5-15.7zm-37.1 62.3c0-11.5 9.1-20 20.6-20 11.4 0 20.7 8.4 20.7 20.2 0 7.2-2.6 11.6-6.3 15.5l-3.3-3.1c3.2-3.4 5.5-7.1 5.5-12.5 0-8.8-7.1-15.4-16.4-15.4-9.3 0-16.5 6.7-16.5 15.4 0 5.5 2.1 9.1 5.8 12.9l-2.9 3c-4.4-4.2-7.2-8.8-7.2-16zm.7 72v-5.6l19.3-15.3-8.6-8.5h-10.7v-4.5h39.9v4.5h-23.8l23.8 22.9v5.8l-17.4-17.1-22.5 17.8z"/></svg>