<svg xmlns="http://www.w3.org/2000/svg" width="197.4" height="337.7"><path d="M.1 282.2v-4.9C.1 205 .1 132.7 0 60.4c0-3 .8-4.7 3.5-6.3 30.4-17.2 60.7-34.6 91-51.8 1.2-.7 2.4-1.3 4.2-2.3v3.7c0 35.5 0 70.9.1 106.4 0 2.6-1.2 3.5-3.1 4.6-30.4 17.3-60.8 34.7-91.2 52-1.2.7-2.4 1.4-4.2 2.5 32.9 18.8 65.3 37.3 98.5 56.2-33 19-65.5 37.7-98.7 56.8zm98.5-169.3c33.2-19.1 65.7-37.7 98.6-56.6.1 1.7.2 2.9.2 4.2v218.1c0 2.3-.2 3.9-2.6 5.3-31 17.6-62 35.2-93 52.9-.8.5-1.6 1.3-3.1 1v-4.1c0-35.1 0-70.1-.1-105.2 0-2.4.8-3.6 2.8-4.7 30.6-17.3 61.1-34.8 91.6-52.2 1.2-.7 2.6-1.1 3.6-2.7-32.4-18.6-64.8-37.1-98-56z"/></svg>