<svg xmlns="http://www.w3.org/2000/svg" width="276.4" height="276.4" viewBox="0 0 276.4 276.4"><path d="M276.4 138.4c0 18.3-.3 36.6.1 54.9.6 35.5-22 67.5-55.9 78.9-7.2 2.4-14.6 4-22.3 4-40 .1-80 .3-120-.1C40 275.8 5.6 244.3.9 206.3c-.6-4.4-.8-8.8-.8-13.3 0-36.6.4-73.2-.1-109.8C-.6 41.7 30.1 5 73.7.3c3-.3 6-.3 9-.3h111c43.2 0 77.6 30.8 82.4 73.6.3 3 .2 6 .2 9 .1 18.6.1 37.2.1 55.8zM138.2 251.2h54.5c4.5 0 8.9-.3 13.3-1.2 26.9-5.7 45-27.7 45.2-55.4.2-37.7.1-75.3 0-113 0-3.8-.4-7.6-1.2-11.3-5.8-27.2-28-45.1-56.3-45.2-37-.1-74 0-111 0-4.2 0-8.4.4-12.5 1.2-26.9 5.8-44.9 27.8-45 55.6-.2 37.5-.1 75.1 0 112.6 0 3.9.4 7.8 1.2 11.7 5.9 27 28 44.8 56 45 18.7.1 37.3 0 55.8 0z"/><path d="M138.4 62.8c41.4.1 75.2 33.9 75.1 75.4 0 41.6-34 75.4-75.7 75.2-41.4-.2-75.1-34.1-74.9-75.6.1-41.4 34-75.1 75.5-75zm50.1 75.3c0-27.6-22.6-50.1-50.2-50.2-27.6 0-50.1 22.4-50.3 50.1-.1 27.7 22.7 50.5 50.4 50.4 27.7-.2 50.1-22.7 50.1-50.3zm35.3-74.2c0 6.4-5 11.4-11.4 11.4s-11.4-5.1-11.3-11.5c.1-6.2 5-11.2 11.2-11.2 6.4-.1 11.5 4.9 11.5 11.3z"/></svg>