<svg xmlns="http://www.w3.org/2000/svg" width="89.3" height="115.8"><path d="M37.5 75.6c-1.6 6.3-3.1 11.7-4.4 17.1-2.1 8.2-6.5 15.1-11.3 21.8-.4.6-.8 1.5-1.8 1.3-1.2-.2-.9-1.3-1-2.1-1.3-10.1-.7-20 1.9-29.9 2.4-9 4.3-18.1 6.4-27.1.4-1.8.4-3.5-.2-5.3-1.9-5.9-1.7-11.7.7-17.4 1.3-3 3.4-5.4 6.3-6.9 6.4-3.1 12.9.7 13.4 7.8.2 3.7-.8 7.2-1.8 10.6-1.3 4.6-2.8 9-3.8 13.6C40 67.5 46.4 73.7 54.8 72c4.6-1 8.2-3.7 10.7-7.5 7-10.3 8.8-21.8 6.8-33.8C70.8 21.8 64.7 16 56 13.3c-13.9-4.4-29.2.3-37.1 11.6-4.9 7-6.9 14.7-5.5 23.2.5 2.9 1.7 5.4 3.4 7.7 1.8 2.4 1.4 8.9-.7 11.1-1.2 1.3-2.4.6-3.5 0C6.8 63.8 3.2 59 1.5 52.7-3.1 36.4 3.3 18.7 18 9 33.5-1.2 50.3-2.9 67.2 4.8c14.5 6.6 22.3 18.5 22.1 34.9-.1 12.7-3.4 24.3-12.1 33.9-7 7.8-16 11.1-26.4 10.1-4.1-.4-7.8-2-10.8-5-.8-.8-1.4-1.7-2.5-3.1z"/></svg>