<svg id="Layer_1" xmlns="http://www.w3.org/2000/svg" width="166.1" height="35.2" viewBox="0 0 166.1 35.2"><style>.st0{fill:#231f20}</style><path class="st0" d="M1.5.9C2 2.3 2.8 4.8 3.7 7.4c1 2.9 2 5.8 2.5 7.6.3.9.4 1 .4 1 .2.2.9.2 1.5.2.1 0 1.2 0 1.5-.2.1 0 .2-.2.4-1 .3-1.4.9-3.7 1.5-6 .3-1.1.6-2.2.8-3.2.1-.4.6-.4.7 0 .3 1.3.7 2.8 1.1 4.3.5 1.8.9 3.7 1.3 5 .2.5.3.9.4 1 .3.2 1.3.2 1.6.2.3 0 1.2 0 1.4-.2.1 0 .2-.2.4-.9L23.6.7c0-.1.2-.4 0-.4h-2.4c-.2 0-.3.1-.4.3-.9 3-2.4 8-3.1 10.5-.1.4-.6.3-.7 0-.6-2.2-1.7-6.3-2.4-8.9-.2-.7-.3-.8-.4-.9 0-.3-.1-.3-1.4-.3h-.5c-.8 0-1 0-1.1.1-.2.1-.2.3-.4 1-.6 2.6-1.7 6.8-2.3 9-.1.3-.6.4-.7 0C7 8.7 4.6 1.4 4.3.3c0-.2-.2-.1-.2-.1H1.5c-.2 0-.2 0-.2.2.1.1.1.3.2.5zm34.9 15.3c2.9 0 5.2-.4 5.7-1 .6-.6 1-4.1 1-7 0-2.9-.4-6.5-1-7.1-.6-.6-2.9-1-5.7-1-2.9 0-5.1.4-5.7 1-.6.6-1 4.2-1 7.1 0 2.9.4 6.4 1 7 .6.6 2.8 1 5.7 1zM33 2.9c.2-.2 1.1-.5 3.4-.5s3.2.3 3.4.5c.2.3.6 2.5.6 5.2 0 2.8-.3 4.9-.5 5.1-.2.2-1.3.5-3.4.5-2.2 0-3.2-.3-3.4-.5-.2-.2-.6-2.3-.6-5.1-.1-2.8.2-4.9.5-5.2zm24.3 13.3c2.9 0 5.2-.4 5.7-1 .6-.6 1-4.1 1-7 0-2.9-.4-6.5-1-7.1-.6-.6-2.9-1-5.7-1-2.9 0-5.1.4-5.7 1-.6.6-1 4.2-1 7.1 0 2.9.4 6.4 1 7 .6.6 2.8 1 5.7 1zM53.9 2.9c.2-.2 1.1-.5 3.4-.5s3.2.3 3.4.5c.2.3.6 2.5.6 5.2 0 2.8-.3 4.9-.5 5.1-.2.2-1.3.5-3.4.5-2.2 0-3.2-.3-3.4-.5-.2-.2-.6-2.3-.6-5.1s.3-4.9.5-5.2zm39.6 12.6c.1 0 .2.2 1.2.2.3 0 1 0 1.2-.2.1-.1.2-.1.2-1.5v-4h6.9v4c0 1.5.1 1.5.2 1.6.2.1.8.2 1.2.2.7 0 1.1-.1 1.2-.2.1-.1.2 0 .2-1.5V.3c0-.1-.1-.2-.2-.2h-2.5c-.1 0-.2.1-.2.2v7.2H96V.3c.1-.2.1-.3 0-.3h-2.5c-.1 0-.2.1-.2.2V14c0 1.5.1 1.4.2 1.5z"/><path class="st0" d="M103.1 14.4V16c0 .1.1.2.2.2h2.5c.1 0 .2-.1.2-.2v-1.7m-12.7.3V16c0 .1.1.2.2.2H96c.1 0 .2-.1.2-.2v-1.6m26 1.8h.2c2.9 0 4.7-.5 5.2-.9.5-.5.9-3.3.9-6.4V.3c0-.1-.1-.2-.2-.2H126c-.1 0-.2.1-.2.2v8.4c0 2.6-.3 3.9-.4 4.3 0 .1-.1.1-.1.1-.3.1-1.5.4-2.9.4-1.7 0-2.6-.2-2.9-.4 0 0-.1 0-.1-.1-.2-.3-.5-1.8-.5-4.4V.2c0-.1-.1-.2-.2-.2h-2.3c-.1 0-.2.1-.2.2v8.6c0 3.1.4 5.9.9 6.4.4.5 2.2 1 5.1 1zm16.2 0h8.8c.2 0 .3-.1.3-.3v-2c0-.2-.1-.3-.3-.3h-6.1c-.2 0-.3-.1-.3-.3V.6c0-.2-.1-.3-.3-.3h-2.1c-.2 0-.3.1-.3.3v15.2c0 .3.2.4.3.4zm17.6 0h9.3c.2 0 .3-.1.3-.3v-2c0-.2-.1-.3-.3-.3h-6.5c-.2 0-.3-.1-.3-.3V.6c0-.2-.1-.3-.3-.3H156c-.2 0-.3.1-.3.3v15.2c0 .3.1.4.3.4zm-83.3-.3l.9.1c.1 0 1.2.1 2.7.1 2.2 0 5.2-.3 7.2-1.5 0 0 .2-.1.3-.3.1-.1.2-.3.2-.3 2.8-6.3.1-11.7 0-11.9l-.1-.3-.3-.2c-3-2.2-9.3-1.5-10-1.4l-.9.1c-.1 0-.2.1-.2.2v15.1c0 .2.1.3.2.3zM75.1 3c0-.1.1-.2.2-.2 1.9-.1 4.8-.1 6.4.8l.1.1c.5 1.1 1.6 4.7 0 8.9 0 .1-.1.1-.1.1-1.7.8-4.5.9-6.4.9-.1 0-.2-.1-.2-.2V3zM1.5 32.8v-2.6L0 29.8v4.4h106.6v-1.4zm116.2 2.4c-1.6 0-2.7-1.2-2.7-2.7 0-1.5 1.2-2.7 2.8-2.7 1.6 0 2.7 1.2 2.7 2.7 0 1.5-1.2 2.7-2.8 2.7zm1.6-2.6c0-.9-.7-1.6-1.6-1.6-.9 0-1.6.7-1.6 1.6 0 .9.7 1.6 1.6 1.6.9 0 1.6-.7 1.6-1.6zm5.2-1.6v1.1h2.5v1h-2.5v2h-1.1V30h3.9v1h-2.8zm13.7 4.2v-3.4l-1.5 2.2-1.4-2.2v3.4h-1.1V30h1.2l1.4 2.2 1.4-2.2h1.2v5.2h-1.2zm8 0l-.5-1.2h-2.2l-.5 1.2h-1.2L144 30h1.1l2.2 5.2h-1.1zm-1.5-3.9L144 33h1.4l-.7-1.7zm5.4 3.9V30h1.1v5.2h-1.1zm8 0l-2.5-3.3v3.3h-1.1V30h1.1l2.4 3.2V30h1.1v5.2h-1zm4 0V30h3.9v1h-2.8v1h2.4v1h-2.4v1.1h2.8v1h-3.9z"/></svg>